HIERARCHY
ROOT hip
{
	OFFSET 0.000000 0.000000 0.000000 
	CHANNELS 6 Xposition Yposition Zposition Xrotation Zrotation Yrotation
	JOINT abdomen
	{
		OFFSET 0.000000 3.402643 0.000000 
		CHANNELS 3 Xrotation Zrotation Yrotation
		JOINT chest
		{
			OFFSET 0.000000 8.438565 -0.680529 
			CHANNELS 3 Xrotation Zrotation Yrotation
			JOINT neck
			{
				OFFSET 0.000000 9.885400 -0.272212 
				CHANNELS 3 Xrotation Zrotation Yrotation
				JOINT head
				{
					OFFSET 0.000000 3.130431 0.000000 
					CHANNELS 3 Xrotation Zrotation Yrotation
					End Site
					{
						OFFSET 0.000000 3.039250 0.000000 
					}
				}
			}
			JOINT lCollar
			{
				OFFSET 3.238290 6.669187 -0.816635 
				CHANNELS 3 Yrotation Zrotation Xrotation
				JOINT lShldr
				{
					OFFSET 2.515050 0.000000 0.000000 
					CHANNELS 3 Zrotation Yrotation Xrotation
					JOINT lForeArm
					{
						OFFSET 11.517700 0.000000 0.000000 
						CHANNELS 3 Yrotation Zrotation Xrotation
						JOINT lHand
						{
							OFFSET 9.026700 0.000000 0.000000 
							CHANNELS 3 Zrotation Yrotation Xrotation
							End Site
							{
								OFFSET 4.028470 0.000000 0.000000 
							}
						}
					}
				}
			}
			JOINT rCollar
			{
				OFFSET -3.238290 6.669187 -0.816635 
				CHANNELS 3 Yrotation Zrotation Xrotation
				JOINT rShldr
				{
					OFFSET -2.515050 0.000000 0.000000 
					CHANNELS 3 Zrotation Yrotation Xrotation
					JOINT rForeArm
					{
						OFFSET -11.517700 0.000000 0.000000 
						CHANNELS 3 Yrotation Zrotation Xrotation
						JOINT rHand
						{
							OFFSET -9.026700 0.000000 0.000000 
							CHANNELS 3 Zrotation Yrotation Xrotation
							End Site
							{
								OFFSET -4.028470 0.000000 0.000000 
							}
						}
					}
				}
			}
		}
	}
	JOINT lThigh
	{
		OFFSET 4.983750 -1.633274 1.361059 
		CHANNELS 3 Xrotation Zrotation Yrotation
		JOINT lShin
		{
			OFFSET -2.041588 -20.007561 0.000000 
			CHANNELS 3 Xrotation Zrotation Yrotation
			JOINT lFoot
			{
				OFFSET 0.000000 -19.190928 -1.224953 
				CHANNELS 3 Xrotation Yrotation Zrotation
				End Site
				{
					OFFSET 0.000000 -2.449906 4.627600 
				}
			}
		}
	}
	JOINT rThigh
	{
		OFFSET -4.983750 -1.633274 1.361059 
		CHANNELS 3 Xrotation Zrotation Yrotation
		JOINT rShin
		{
			OFFSET 2.041588 -20.007561 0.000000 
			CHANNELS 3 Xrotation Zrotation Yrotation
			JOINT rFoot
			{
				OFFSET 0.000000 -19.190928 -1.224953 
				CHANNELS 3 Xrotation Yrotation Zrotation
				End Site
				{
					OFFSET 0.000000 -2.449906 4.627600 
				}
			}
		}
	}
}
MOTION
Frames: 6
Frame Time: 0.048840
0.000000 45.157642 0.000000 -0.528559 3.886550 -4.059180 -2.573690 0.702248 2.853949 -1.103010 0.300963 1.223121 23.195101 -6.082240 2.206790 16.661200 1.813130 2.403010 2.000000 -2.000000 0.020256 93.779800 176.264008 6.231990 22.949499 -0.340743 0.053369 0.044894 0.020256 -133.649994 -2.000000 2.000000 0.020256 -90.761002 -173.636002 2.903700 -30.303101 0.332885 0.068986 -0.056781 0.027538 -146.804993 7.596669 -6.361712 1.832069 0.777620 4.195425 -0.057363 -13.183744 14.357486 3.533445 2.144922 -5.827984 -4.036670 10.449140 -6.695827 -0.532737 -17.087263 -2.549705 0.063590 
0.036934 45.164936 0.011001 -0.763370 3.769200 -4.102810 -2.585940 0.572338 3.006556 -1.108260 0.245288 1.288524 23.173300 -5.999630 2.036390 16.680300 1.765310 2.324570 2.000000 -2.000000 0.000000 94.092400 176.272995 6.661690 23.076401 -0.340625 0.053647 0.044924 -0.000091 -133.464996 -2.000000 2.000000 0.000000 -90.468002 -173.675995 2.161610 -30.029600 0.333213 0.068422 -0.056538 0.026109 -146.287003 7.926867 -6.271588 1.851015 0.668812 4.194407 -0.057092 -13.065670 14.280256 3.484581 2.382614 -5.633451 -3.581450 10.540140 -6.789418 -0.532600 -17.356937 -2.849471 0.031773 
0.055178 45.164936 0.005421 -0.636009 3.583760 -4.072880 -2.585660 0.781321 2.948344 -1.108140 0.334852 1.263576 23.352200 -6.015910 1.989760 16.778000 1.764420 2.308040 2.000000 -2.000000 0.000000 94.033997 176.389999 7.013510 23.076401 -0.340625 0.053647 0.044897 -0.000555 -133.630997 -2.000000 2.000000 0.000000 -90.614502 -173.735001 2.259420 -30.078400 0.333154 0.068523 -0.056692 0.027026 -146.619003 7.763125 -6.010391 2.250021 0.764073 4.197919 -0.057095 -12.970181 14.035496 3.421198 2.341490 -5.391537 -3.226716 10.313786 -6.633798 -0.516649 -17.306196 -3.247431 -0.125032 
0.054812 45.159824 0.017359 -0.704541 3.632540 -4.136350 -2.578241 0.843761 3.005954 -1.104960 0.361612 1.288266 23.194201 -5.958550 1.995180 16.661100 1.803600 2.303220 2.000000 -2.000000 0.000000 94.161003 176.251999 7.315940 23.379200 -0.340340 0.054311 0.044797 0.007271 -134.324005 -2.000000 2.000000 0.000000 -90.555901 -173.666000 2.444790 -30.185900 0.333026 0.068745 -0.056729 0.027242 -146.697006 7.783165 -6.040558 2.400706 0.918716 4.196999 -0.047403 -13.093257 13.778745 3.401204 2.389679 -5.501305 -3.166117 10.383418 -6.542806 -0.521001 -17.260298 -3.328346 -0.202351 
0.050777 45.154709 0.011435 -0.704610 3.720420 -4.059300 -2.626680 0.898080 2.975728 -1.125720 0.384891 1.275312 23.194401 -6.144770 2.066600 16.631300 1.756220 2.330700 2.000000 -2.000000 0.000000 94.102303 176.106003 7.217960 23.603800 -0.340126 0.054803 0.044751 0.006178 -134.714996 -2.000000 2.000000 0.000000 -90.634003 -173.617004 2.327480 -30.136999 0.333084 0.068644 -0.056674 0.026918 -146.580002 7.774284 -6.132967 2.398463 0.813208 4.208797 -0.047520 -13.054810 13.782284 3.375682 2.370828 -5.653823 -3.445651 10.434580 -6.534884 -0.521129 -17.237482 -3.088734 -0.155392 
0.017520 45.155087 0.001532 -0.597063 3.866980 -4.083140 -2.476110 0.676953 3.070116 -1.061190 0.290123 1.315764 23.008699 -6.318840 2.136550 16.542999 1.709340 2.366240 2.000000 -2.000000 0.000000 94.190102 176.360992 6.515400 23.320601 -0.340395 0.054183 0.044792 0.007162 -134.363007 -2.000000 2.000000 0.000000 -90.546204 -173.645996 2.561930 -30.205400 0.333002 0.068785 -0.056762 0.027430 -146.764999 7.702409 -6.291632 2.220299 0.696872 4.199961 -0.047322 -13.008533 14.001765 3.409164 2.181152 -5.835814 -3.613135 10.554280 -6.547167 -0.533828 -17.291534 -2.919968 -0.116943 
